<svg xmlns="http://www.w3.org/2000/svg"  viewBox="0 0 80 80" width="80px" height="80px"><path d="M 39.984375 7.9863281 A 1.0001 1.0001 0 0 0 39.839844 8 L 37.550781 8 C 37.366783 8 37.156906 7.9995705 36.929688 8.0175781 C 27.276604 8.3027574 19.132937 15.371554 17.412109 24.890625 L 14.769531 25.972656 A 1.0001 1.0001 0 0 0 14.619141 26.050781 C 13.274737 26.892547 12.356122 28.25548 12.095703 29.792969 C 12.024573 30.158223 11.986742 30.547253 12.005859 30.951172 L 12.003906 30.935547 L 12.244141 38.599609 A 1.0001 1.0001 0 0 0 12.244141 38.609375 C 12.303631 40.067658 13.1427 41.397086 14.458984 42.060547 L 14.400391 42.029297 L 15.833984 42.875 C 15.61883 47.64381 15.573922 51.957236 15.732422 55.183594 A 1.0001 1.0001 0 0 0 15.732422 55.1875 C 15.752832 55.579364 15.833003 55.951547 15.947266 56.296875 C 16.233065 57.161079 16.821447 57.88619 17.583984 58.378906 A 1.0001 1.0001 0 0 0 17.597656 58.388672 C 18.842454 59.162948 20.59108 60.083375 22.615234 61.011719 C 22.769055 62.288744 23.378783 63.615352 24.257812 64.976562 C 25.279241 66.558282 26.692787 68.172995 28.347656 69.644531 C 31.657395 72.587606 35.921108 75 40.074219 75 C 44.22733 75 48.492995 72.587603 51.802734 69.644531 C 53.457604 68.172995 54.87115 66.558281 55.892578 64.976562 C 56.772044 63.614677 57.380164 62.287374 57.533203 61.009766 C 59.555056 60.082264 61.301235 59.162257 62.544922 58.388672 A 1.0001 1.0001 0 0 0 62.548828 58.384766 C 63.661553 57.682689 64.350046 56.483076 64.410156 55.183594 C 64.569559 51.938865 64.523743 47.59712 64.304688 42.794922 L 65.599609 42.029297 L 65.541016 42.060547 C 66.8573 41.397086 67.696365 40.067658 67.755859 38.609375 A 1.0001 1.0001 0 0 0 67.755859 38.599609 L 67.996094 30.935547 L 67.994141 30.951172 C 68.013251 30.547253 67.975417 30.158223 67.904297 29.792969 C 67.643878 28.25548 66.725263 26.892547 65.380859 26.050781 A 1.0001 1.0001 0 0 0 65.230469 25.972656 L 62.740234 24.953125 C 61.043152 15.396202 52.877624 8.293179 43.195312 8.015625 L 43.189453 8.015625 C 42.973273 8.0004865 42.770446 8 42.591797 8 L 40.154297 8 A 1.0001 1.0001 0 0 0 39.984375 7.9863281 z M 37.550781 10 L 39 10 L 39 27 A 1.0001 1.0001 0 1 0 41 27 L 41 10 L 42.591797 10 C 42.756254 10 42.887596 10.003376 43.001953 10.009766 C 43.004706 10.266421 43.110383 10.523373 43.289062 10.710938 C 43.478062 10.890937 43.74 11 44 11 C 44.26 11 44.520938 10.890937 44.710938 10.710938 C 44.852189 10.561838 44.931087 10.365547 44.966797 10.164062 C 52.90453 11.18662 59.372317 17.292314 60.78125 25.345703 A 1.0001 1.0001 0 0 0 60.767578 25.853516 C 56.790269 27.943927 51.458836 29.214807 46.976562 29.884766 C 46.964485 29.794682 46.955512 29.702883 46.919922 29.619141 C 46.869922 29.499141 46.798984 29.389063 46.708984 29.289062 C 46.658984 29.249062 46.608828 29.209922 46.548828 29.169922 C 46.498828 29.129922 46.438906 29.100078 46.378906 29.080078 C 46.318906 29.050078 46.259453 29.029531 46.189453 29.019531 C 45.870453 28.949531 45.518062 29.059062 45.289062 29.289062 C 45.199063 29.389062 45.130078 29.499141 45.080078 29.619141 C 45.030078 29.739141 45 29.87 45 30 C 45 30.046066 45.022208 30.089144 45.029297 30.134766 C 42.988096 30.37672 41.202553 30.5 40 30.5 C 38.791888 30.5 37.0085 30.374897 34.972656 30.130859 C 34.978956 30.086515 35 30.0447 35 30 C 35 29.74 34.890937 29.479063 34.710938 29.289062 C 34.609938 29.199062 34.500859 29.130078 34.380859 29.080078 C 34.010859 28.930078 33.568063 29.009062 33.289062 29.289062 C 33.137337 29.448333 33.054135 29.660539 33.025391 29.876953 C 28.55855 29.200698 23.254538 27.91849 19.283203 25.804688 C 20.513564 17.579458 27.002525 11.295147 35.017578 10.191406 C 35.017578 10.191406 35.017578 10.193359 35.017578 10.193359 C 35.030078 10.257109 35.050078 10.320859 35.080078 10.380859 C 35.130078 10.510859 35.199062 10.620938 35.289062 10.710938 C 35.389062 10.800938 35.499141 10.869922 35.619141 10.919922 C 35.739141 10.969922 35.87 11 36 11 C 36.26 11 36.520938 10.890937 36.710938 10.710938 C 36.887213 10.524869 36.991652 10.270215 36.996094 10.015625 C 37.000673 10.015492 37.005186 10.015755 37.009766 10.015625 A 1.0001 1.0001 0 0 0 37.070312 10.011719 C 37.186864 10.001352 37.355781 10 37.550781 10 z M 35.701172 13 C 35.150172 12.95 34.660609 13.350391 34.599609 13.900391 C 34.549609 14.450391 34.95 14.94 35.5 15 L 35.601562 15 C 36.111562 15 36.541797 14.619609 36.591797 14.099609 C 36.650797 13.549609 36.251172 13.06 35.701172 13 z M 44.298828 13 C 43.749828 13.06 43.348438 13.549609 43.398438 14.099609 C 43.459437 14.609609 43.889437 15 44.398438 15 C 44.429437 15 44.459047 15.000234 44.498047 14.990234 C 45.048047 14.940234 45.449672 14.450391 45.388672 13.900391 C 45.338672 13.350391 44.848828 12.95 44.298828 13 z M 35.300781 17 C 34.750781 16.95 34.260937 17.350391 34.210938 17.900391 C 34.150938 18.450391 34.549609 18.94 35.099609 19 L 35.199219 19 C 35.709219 19 36.139453 18.619609 36.189453 18.099609 C 36.249453 17.549609 35.850781 17.06 35.300781 17 z M 44.699219 17 C 44.149219 17.06 43.750781 17.549609 43.800781 18.099609 C 43.859781 18.609609 44.290781 19 44.800781 19 C 44.830781 19 44.869437 19.000234 44.898438 18.990234 C 45.449438 18.940234 45.849063 18.450391 45.789062 17.900391 C 45.739062 17.350391 45.249219 16.95 44.699219 17 z M 34.898438 21 C 34.348437 20.95 33.858594 21.350391 33.808594 21.900391 C 33.749594 22.450391 34.148219 22.940234 34.699219 22.990234 C 34.728219 23.000234 34.770781 23 34.800781 23 C 35.310781 23 35.739063 22.619609 35.789062 22.099609 C 35.848063 21.549609 35.449438 21.06 34.898438 21 z M 45.099609 21.009766 C 44.550609 21.059766 44.148219 21.549609 44.199219 22.099609 C 44.259219 22.619609 44.689219 23 45.199219 23 L 45.298828 23 C 45.848828 22.94 46.250453 22.450391 46.189453 21.900391 C 46.139453 21.350391 45.649609 20.949766 45.099609 21.009766 z M 34.501953 25 C 33.951953 24.95 33.461391 25.350391 33.400391 25.900391 C 33.350391 26.450391 33.750781 26.940234 34.300781 26.990234 C 34.330781 27.000234 34.369391 27 34.400391 27 C 34.911391 27 35.340625 26.619609 35.390625 26.099609 C 35.450625 25.549609 35.051953 25.06 34.501953 25 z M 45.5 25.009766 C 44.951 25.059766 44.549609 25.549609 44.599609 26.099609 C 44.659609 26.619609 45.090609 27 45.599609 27 L 45.699219 27 C 46.249219 26.94 46.649844 26.450391 46.589844 25.900391 C 46.539844 25.350391 46.05 24.949766 45.5 25.009766 z M 17.089844 27.183594 C 17.006759 27.898155 16.931588 28.613761 16.855469 29.330078 C 16.785385 29.989665 16.704547 30.647758 16.640625 31.306641 C 16.640625 31.306641 16.640625 31.308594 16.640625 31.308594 C 16.476599 32.99946 16.333448 34.684963 16.212891 36.347656 C 16.212891 36.347656 16.212891 36.349609 16.212891 36.349609 A 1.0001 1.0001 0 0 0 16.212891 36.351562 C 16.105529 37.806442 16.025029 39.217268 15.947266 40.619141 L 15.417969 40.306641 A 1.0001 1.0001 0 0 0 15.359375 40.275391 C 14.69566 39.940851 14.274646 39.275061 14.244141 38.527344 L 14.003906 30.873047 A 1.0001 1.0001 0 0 0 14.001953 30.857422 C 13.991423 30.634841 14.014277 30.394999 14.060547 30.162109 A 1.0001 1.0001 0 0 0 14.064453 30.132812 C 14.224361 29.17717 14.798637 28.320959 15.652344 27.773438 L 17.089844 27.183594 z M 63.058594 27.244141 L 64.347656 27.773438 C 65.201363 28.320958 65.775639 29.177171 65.935547 30.132812 A 1.0001 1.0001 0 0 0 65.939453 30.162109 C 65.985723 30.394999 66.008587 30.634841 65.998047 30.857422 A 1.0001 1.0001 0 0 0 65.996094 30.873047 L 65.755859 38.527344 C 65.725349 39.275061 65.30434 39.940851 64.640625 40.275391 A 1.0001 1.0001 0 0 0 64.582031 40.306641 L 64.189453 40.539062 C 64.113086 39.172855 64.03399 37.799137 63.929688 36.382812 A 1.0001 1.0001 0 0 0 63.927734 36.347656 C 63.927734 36.347656 63.927734 36.345703 63.927734 36.345703 C 63.807155 34.682678 63.663623 32.997827 63.5 31.306641 C 63.369004 29.952366 63.215322 28.596925 63.058594 27.244141 z M 61.091797 27.810547 C 61.394182 30.456003 61.659994 33.111407 61.859375 35.722656 C 52.251734 38.246959 45.61494 48.328068 45.144531 63.208984 C 44.051821 63.458609 42.971169 63.680307 42.005859 63.785156 L 43.431641 45.65625 C 43.671641 42.66325 45.635781 40.108328 48.425781 39.111328 L 56.615234 36.224609 C 57.995234 35.740609 59.061797 34.607172 59.466797 33.201172 L 60.320312 30.164062 C 50.570312 34.699062 43.070312 34.699219 40.070312 34.699219 C 38.585313 34.699219 35.990313 34.699625 32.570312 34.140625 C 31.190313 33.928625 29.690313 33.611828 28.070312 33.173828 C 27.575312 33.052828 27.080313 32.916 26.570312 32.75 C 25.610312 32.463 24.605313 32.129328 23.570312 31.736328 C 22.370313 31.280328 21.110312 30.766109 19.820312 30.162109 L 20.675781 33.201172 C 21.080781 34.607172 22.145391 35.741609 23.525391 36.224609 L 23.570312 36.238281 L 26.570312 37.296875 L 28.070312 37.826172 L 31.716797 39.111328 C 32.016797 39.217328 32.300312 39.338609 32.570312 39.474609 C 34.895313 40.653609 36.500937 42.98025 36.710938 45.65625 L 38.134766 63.785156 C 37.169903 63.680214 36.090067 63.458451 34.998047 63.208984 C 34.527671 48.328121 27.88982 38.247691 18.283203 35.722656 C 18.482481 33.112746 18.746647 30.45857 19.048828 27.814453 C 26.099382 31.345274 35.709913 32.5 40 32.5 C 44.291288 32.5 54.022313 31.345933 61.091797 27.810547 z M 18.134766 37.699219 C 25.665087 39.84984 31.297943 47.304815 32.710938 58.980469 C 32.574156 58.971552 32.436308 58.985915 32.300781 59.039062 C 31.780781 59.229062 31.520937 59.810313 31.710938 60.320312 C 31.859938 60.730312 32.239438 60.970703 32.648438 60.970703 C 32.735783 60.970703 32.818563 60.948578 32.902344 60.927734 C 32.948063 61.514093 32.974853 62.118992 33 62.724609 C 29.951751 61.868097 26.781572 60.662725 24.0625 59.449219 A 1.0001 1.0001 0 0 0 23.888672 59.373047 C 21.736377 58.405714 19.879623 57.448802 18.664062 56.693359 C 18.260101 56.430434 17.979189 56.071606 17.845703 55.667969 C 17.780388 55.470572 17.74039 55.269118 17.730469 55.085938 L 17.730469 55.082031 C 17.521735 50.82864 17.667435 44.515074 18.134766 37.699219 z M 62.007812 37.699219 C 62.107473 39.152846 62.202324 40.599043 62.271484 41.990234 A 1.0001 1.0001 0 0 0 62.294922 42.617188 C 62.52251 47.49067 62.569568 51.880783 62.412109 55.085938 A 1.0001 1.0001 0 0 0 62.412109 55.089844 C 62.381659 55.755017 62.048205 56.333749 61.482422 56.691406 C 61.482422 56.691406 61.482422 56.693359 61.482422 56.693359 C 60.261671 57.452244 58.390795 58.412905 56.224609 59.384766 A 1.0001 1.0001 0 0 0 56.121094 59.431641 C 53.392882 60.650512 50.205766 61.863982 47.142578 62.724609 C 47.167128 62.133413 47.192166 61.5416 47.236328 60.96875 C 47.240314 60.968795 47.244062 60.970703 47.248047 60.970703 C 47.648047 60.970703 48.030687 60.730312 48.179688 60.320312 C 48.379688 59.810313 48.109609 59.229062 47.599609 59.039062 C 47.543419 59.017409 47.48656 59.020889 47.429688 59.009766 C 48.836937 47.318166 54.471378 39.851657 62.007812 37.699219 z M 19.300781 38.667969 C 19.172969 38.685938 19.047187 38.730781 18.929688 38.800781 C 18.449688 39.080781 18.300078 39.699922 18.580078 40.169922 C 18.770078 40.479922 19.100453 40.660156 19.439453 40.660156 C 19.620453 40.660156 19.789219 40.609531 19.949219 40.519531 C 20.429219 40.229531 20.580781 39.620625 20.300781 39.140625 C 20.083281 38.788125 19.684219 38.614063 19.300781 38.667969 z M 60.595703 38.669922 C 60.209922 38.616484 59.809609 38.790391 59.599609 39.150391 C 59.309609 39.620391 59.469453 40.229531 59.939453 40.519531 C 60.100453 40.609531 60.279219 40.660156 60.449219 40.660156 C 60.788219 40.660156 61.128594 40.479922 61.308594 40.169922 C 61.598594 39.699922 61.43875 39.080781 60.96875 38.800781 C 60.85125 38.730781 60.724297 38.687734 60.595703 38.669922 z M 21.214844 42.173828 C 21.084078 42.169453 20.948609 42.190234 20.818359 42.240234 C 20.309359 42.440234 20.05 43.019297 20.25 43.529297 C 20.399 43.929297 20.779688 44.179688 21.179688 44.179688 C 21.299688 44.179687 21.419062 44.149375 21.539062 44.109375 C 22.049062 43.909375 22.308141 43.330312 22.119141 42.820312 C 21.969141 42.430312 21.607141 42.186953 21.214844 42.173828 z M 58.679688 42.173828 C 58.292078 42.186953 57.928547 42.430312 57.779297 42.820312 C 57.579297 43.330312 57.839375 43.909375 58.359375 44.109375 C 58.479375 44.149375 58.59975 44.169922 58.71875 44.169922 C 59.11975 44.169922 59.499437 43.929297 59.648438 43.529297 C 59.848437 43.019297 59.589359 42.440234 59.068359 42.240234 C 58.940859 42.190234 58.808891 42.169453 58.679688 42.173828 z M 57.894531 46.011719 C 57.634531 46.011719 57.374453 46.104062 57.189453 46.289062 C 57.000453 46.479062 56.898438 46.74 56.898438 47 C 56.898437 47.26 57.000453 47.520938 57.189453 47.710938 C 57.379453 47.890938 57.628437 48 57.898438 48 C 57.959437 48 58.029844 47.990469 58.089844 47.980469 C 58.148844 47.970469 58.218297 47.949922 58.279297 47.919922 C 58.339297 47.899922 58.398219 47.870078 58.449219 47.830078 C 58.508219 47.800078 58.559609 47.750937 58.599609 47.710938 C 58.790609 47.520938 58.898438 47.26 58.898438 47 C 58.898438 46.74 58.789609 46.479062 58.599609 46.289062 C 58.414609 46.104062 58.154531 46.011719 57.894531 46.011719 z M 21.800781 46.019531 C 21.740781 46.029531 21.679141 46.050078 21.619141 46.080078 C 21.558141 46.100078 21.500453 46.129922 21.439453 46.169922 C 21.390453 46.209922 21.339063 46.249063 21.289062 46.289062 C 21.108063 46.479062 21 46.74 21 47 C 21 47.13 21.030078 47.260859 21.080078 47.380859 C 21.130078 47.500859 21.199063 47.610937 21.289062 47.710938 C 21.478062 47.890938 21.74 48 22 48 C 22.06 48 22.129453 47.990469 22.189453 47.980469 C 22.259453 47.970469 22.319859 47.949922 22.380859 47.919922 C 22.440859 47.899922 22.500547 47.870078 22.560547 47.830078 C 22.609547 47.800078 22.660937 47.750937 22.710938 47.710938 C 22.800938 47.610938 22.869922 47.500859 22.919922 47.380859 C 22.978922 47.260859 23 47.13 23 47 C 23 46.74 22.890937 46.479062 22.710938 46.289062 C 22.661938 46.249063 22.610547 46.209922 22.560547 46.169922 C 22.500547 46.129922 22.440859 46.100078 22.380859 46.080078 C 22.320859 46.050078 22.259453 46.029531 22.189453 46.019531 C 22.069453 45.989531 21.940781 45.989531 21.800781 46.019531 z M 25.494141 48.361328 C 25.239266 48.390078 24.993859 48.515469 24.818359 48.730469 C 24.478359 49.160469 24.548516 49.790859 24.978516 50.130859 C 25.159516 50.280859 25.380609 50.349609 25.599609 50.349609 C 25.889609 50.349609 26.188906 50.230469 26.378906 49.980469 C 26.728906 49.550469 26.659516 48.920313 26.228516 48.570312 C 26.013516 48.400312 25.749016 48.332578 25.494141 48.361328 z M 54.404297 48.361328 C 54.150672 48.332578 53.884922 48.400312 53.669922 48.570312 C 53.239922 48.920313 53.169766 49.550469 53.509766 49.980469 C 53.709766 50.230469 53.999063 50.349609 54.289062 50.349609 C 54.509063 50.349609 54.729922 50.280859 54.919922 50.130859 C 55.348922 49.790859 55.419359 49.160469 55.068359 48.730469 C 54.898859 48.515469 54.657922 48.390078 54.404297 48.361328 z M 28.748047 51.402344 C 28.494297 51.372344 28.229766 51.439375 28.009766 51.609375 C 27.579766 51.959375 27.509609 52.579531 27.849609 53.019531 C 28.049609 53.269531 28.340859 53.400391 28.630859 53.400391 C 28.850859 53.400391 29.069 53.329687 29.25 53.179688 C 29.69 52.839688 29.759922 52.209297 29.419922 51.779297 C 29.244922 51.559297 29.001797 51.432344 28.748047 51.402344 z M 51.146484 51.40625 C 50.892609 51.4375 50.650469 51.564297 50.480469 51.779297 C 50.130469 52.209297 50.210625 52.839687 50.640625 53.179688 C 50.830625 53.329688 51.039766 53.400391 51.259766 53.400391 C 51.559766 53.400391 51.850781 53.269531 52.050781 53.019531 C 52.390781 52.579531 52.310859 51.959375 51.880859 51.609375 C 51.666359 51.439375 51.400359 51.375 51.146484 51.40625 z M 30.861328 55.029297 C 30.732094 55.039453 30.602969 55.075625 30.480469 55.140625 C 29.990469 55.390625 29.790781 55.990469 30.050781 56.480469 C 30.220781 56.830469 30.569406 57.029297 30.941406 57.029297 C 31.091406 57.029297 31.250625 56.990156 31.390625 56.910156 C 31.890625 56.660156 32.080078 56.060313 31.830078 55.570312 C 31.634328 55.202812 31.249031 54.998828 30.861328 55.029297 z M 49.033203 55.029297 C 48.641516 54.998828 48.255859 55.202813 48.068359 55.570312 C 47.818359 56.060313 48.01 56.669922 48.5 56.919922 C 48.649 56.989922 48.800938 57.029297 48.960938 57.029297 C 49.320938 57.029297 49.669609 56.830469 49.849609 56.480469 C 50.099609 55.990469 49.909922 55.390625 49.419922 55.140625 C 49.294922 55.075625 49.163766 55.039453 49.033203 55.029297 z M 55.179688 62.033203 C 54.952423 62.604923 54.634299 63.235035 54.210938 63.890625 C 53.31049 65.285 52.005287 66.787552 50.472656 68.150391 C 47.407395 70.876069 43.421108 73 40.074219 73 C 36.72733 73 32.742995 70.876069 29.677734 68.150391 C 28.145104 66.787552 26.8399 65.285 25.939453 63.890625 C 25.517036 63.236497 25.200312 62.607834 24.972656 62.037109 C 27.761396 63.197273 30.856351 64.289676 33.814453 65.025391 L 33.814453 65.023438 C 34.555396 65.208291 35.290565 65.369904 36.009766 65.501953 C 36.558418 65.602762 37.085828 65.668098 37.611328 65.730469 C 37.774734 65.749849 37.948769 65.785533 38.109375 65.800781 C 38.114402 65.801259 38.119976 65.802261 38.125 65.802734 C 38.1275 65.802969 38.130312 65.804388 38.132812 65.804688 C 38.816401 65.898297 39.465769 65.931641 40.070312 65.931641 C 40.674872 65.931641 41.326161 65.8983 42.009766 65.804688 C 42.012566 65.804305 42.014778 65.803134 42.017578 65.802734 C 42.022937 65.801996 42.02784 65.801527 42.033203 65.800781 C 42.193805 65.785531 42.367825 65.749866 42.53125 65.730469 C 43.745798 65.586418 45.021969 65.349303 46.328125 65.023438 L 46.328125 65.025391 C 49.289616 64.288833 52.388472 63.194857 55.179688 62.033203 z"/></svg>